<?xml version="1.0" encoding="UTF-8"?>
<svg viewBox="0 0 400 400" xmlns="http://www.w3.org/2000/svg">
  <!-- Minimal Circle Background -->
  <circle cx="200" cy="200" r="180" fill="#F2D7EE" stroke="#D3BCC0" stroke-width="2"/>
  
  <!-- Stylized Camera Lens/Eye (Recording + AI) -->
  <circle cx="200" cy="200" r="100" fill="#69306D" opacity="0.9"/>
  <circle cx="200" cy="200" r="75" fill="#F2D7EE" opacity="0.95"/>
  <circle cx="200" cy="200" r="50" fill="#A5668B" opacity="0.9"/>
  <circle cx="200" cy="200" r="25" fill="#0E103D" opacity="0.9"/>
  
  <!-- Waveform/Transcript (Stylized) -->
  <g transform="translate(130, 280)">
    <path d="M0,0 C10,-20 20,20 30,0 C40,-20 50,20 60,0 C70,-20 80,20 90,0 C100,-20 110,20 120,0 C130,-20 140,20 150,0" 
          stroke="#0E103D" stroke-width="4" fill="none" stroke-linecap="round"/>
  </g>
  
  <!-- Minimal AI Node Points -->
  <circle cx="155" cy="150" r="6" fill="#69306D"/>
  <circle cx="245" cy="150" r="6" fill="#69306D"/>
  <circle cx="200" cy="120" r="6" fill="#69306D"/>
  
  <!-- Connecting Line Pattern -->
  <path d="M155,150 L200,120 L245,150" stroke="#0E103D" stroke-width="2" fill="none"/>
</svg>